
<svg width="20" height="19" viewBox="0 0 20 19" fill="none" xmlns="http://www.w3.org/2000/svg">
<path d="M14.5313 5.3L15.7479 6.33333L8.54792 14.9L4.26458 11.3L5.29792 10.0833L8.36458 12.65L14.5313 5.3Z" fill="white"/>
<path d="M14.5313 5.3L14.912 4.85165L14.461 4.46857L14.0806 4.92192L14.5313 5.3ZM15.7479 6.33333L16.1982 6.7118L16.5747 6.26381L16.1287 5.88499L15.7479 6.33333ZM8.54792 14.9L8.16945 15.3503L8.61976 15.7288L8.99822 15.2785L8.54792 14.9ZM4.26458 11.3L3.81624 10.9192L3.43348 11.3699L3.88612 11.7503L4.26458 11.3ZM5.29792 10.0833L5.67545 9.63225L5.22762 9.25743L4.84957 9.70255L5.29792 10.0833ZM8.36458 12.65L7.98705 13.1011L8.43759 13.4782L8.81521 13.0281L8.36458 12.65ZM14.1505 5.74834L15.3671 6.78168L16.1287 5.88499L14.912 4.85165L14.1505 5.74834ZM15.2976 5.95487L8.09761 14.5215L8.99822 15.2785L16.1982 6.7118L15.2976 5.95487ZM8.92638 14.4497L4.64305 10.8497L3.88612 11.7503L8.16945 15.3503L8.92638 14.4497ZM4.71293 11.6808L5.74626 10.4641L4.84957 9.70255L3.81624 10.9192L4.71293 11.6808ZM4.92038 10.5344L7.98705 13.1011L8.74212 12.1989L5.67545 9.63225L4.92038 10.5344ZM8.81521 13.0281L14.9819 5.67808L14.0806 4.92192L7.91395 12.2719L8.81521 13.0281Z" fill="white"/>
</svg>
