
<svg width="129" height="49" viewBox="0 0 129 49" fill="none" xmlns="http://www.w3.org/2000/svg">
<path fill-rule="evenodd" clip-rule="evenodd" d="M29.6905 18.1581C30.9819 12.4138 32.4135 6.04586 33.7163 0C33.7163 0.0477609 33.8345 0.394917 33.9617 0.768527L33.9617 0.768616L33.9618 0.768828C34.0916 1.15007 34.2307 1.55877 34.2632 1.70497C34.3201 2.8999 34.2009 4.11998 34.0835 5.32072L34.0835 5.32122C34.0682 5.47801 34.0529 5.63446 34.038 5.79048C33.6198 9.77948 32.9121 13.7685 32.0757 17.6931C31.2715 21.4891 30.4029 25.2851 29.1161 28.9202C29.0472 29.1144 28.9783 29.3257 28.9066 29.5457L28.9064 29.5463L28.9063 29.5466C28.6096 30.4564 28.2641 31.5157 27.6685 32.1372C26.3036 33.6183 26.0398 30.223 25.9304 28.815C25.9186 28.6633 25.9086 28.5347 25.8992 28.4377C25.7977 27.5535 25.7289 26.6758 25.6604 25.8016L25.6604 25.8015C25.5768 24.7358 25.4937 23.6754 25.3523 22.615C25.2014 21.9768 25.0506 21.3259 24.8982 20.6686L24.8981 20.668L24.8981 20.668L24.8981 20.6679L24.8981 20.6679C24.6281 19.5033 24.3534 18.3182 24.0655 17.1463C23.0361 14.3475 21.1703 5.95133 22.0389 5.05059C24.5159 4.4072 27.2503 24.4809 27.6363 27.3439C28.2388 24.6152 28.941 21.4916 29.6905 18.1581ZM4.66743 32.6197C4.60309 32.6197 4.53875 32.6197 4.47441 32.5875H4.47444C4.59926 32.5875 4.6938 32.5875 4.78745 32.6169C5.61479 32.5153 6.37693 32.0978 6.85494 31.3329C7.75568 29.8531 7.82002 27.9552 7.82002 26.3145C7.80622 23.2776 6.122 20.2526 4.45005 17.2495C2.22564 13.2542 0.0229298 9.29788 1.80436 5.40445L1.99737 5.01842C2.15822 4.69672 2.35124 4.4072 2.54425 4.11768C3.18764 2.63789 8.88161 1.60847 8.65643 3.63514C8.65643 3.7115 8.63628 3.76773 8.61194 3.83568C8.60551 3.85361 8.5988 3.87235 8.59209 3.89249C8.55992 4.05334 8.49558 4.18201 8.39907 4.34286C6.11505 3.95683 4.6996 4.34286 3.92753 5.21143C3.5415 5.75831 3.28415 6.43387 3.15547 7.17376C2.80161 10.9376 6.21156 17.1463 7.98087 19.6876C8.65643 21.0387 9.26764 23.0976 9.525 25.2851C9.84669 26.8614 9.81452 28.1803 9.55717 29.3063C9.2033 31.9442 7.65918 34.2282 4.79611 34.389C2.25473 34.5177 -0.0936333 32.3945 0.0028747 29.821C-0.0292946 30.6574 1.48266 31.9442 3.25198 32.491C3.70235 32.6197 4.18489 32.684 4.66743 32.6519C4.82828 32.6519 4.98912 32.6519 5.14997 32.6197H4.79611H4.76394H4.66743ZM121.346 6.33736C122.922 6.36953 125.431 8.20318 126.139 9.52213C129.163 13.7363 129.259 27.5691 124.337 31.6225C124.337 31.6225 122.568 33.5205 119.415 32.5875V29.1776H119.383C119.294 26.2381 119.329 22.2029 119.359 18.8298V18.8293V18.8288V18.8284V18.8281V18.8278V18.8276L119.359 18.8256C119.372 17.3646 119.383 16.028 119.383 14.9587C119.616 14.1106 119.445 12.5316 119.27 10.9152C119.106 9.40496 118.938 7.86207 119.094 6.85207C119.094 6.69122 119.126 6.56255 119.158 6.46604V6.43387C119.177 6.41537 119.184 6.40751 119.188 6.39805C119.19 6.39106 119.19 6.3832 119.19 6.36953C119.448 5.59747 120.059 5.40445 121.346 6.33736ZM121.249 6.49821C121.313 6.53038 121.41 6.56254 121.571 6.59471C121.442 6.53038 121.313 6.46604 121.153 6.4017L121.249 6.49821ZM123.372 29.8853C123.694 29.6601 124.016 29.3706 124.337 29.0167C127.812 23.741 127.265 8.78223 121.346 7.91366C120.992 10.1977 120.96 19.2373 121.249 25.5425C121.313 27.3439 121.764 29.8531 121.925 30.6574C122.279 30.5287 122.6 30.3679 122.922 30.1748C122.946 30.1626 122.966 30.155 122.983 30.1485C123.011 30.138 123.031 30.1304 123.051 30.1105C123.099 30.0783 123.139 30.0462 123.179 30.014C123.219 29.9818 123.26 29.9497 123.308 29.9175C123.324 29.9175 123.332 29.9094 123.34 29.9014C123.348 29.8934 123.356 29.8853 123.372 29.8853ZM127.007 11.581C126.999 11.5568 126.991 11.5327 126.975 11.5166C126.988 11.5423 127.001 11.5679 127.012 11.5935L127.007 11.581ZM127.021 11.6173C127.032 11.6481 127.04 11.6789 127.04 11.7096V11.6453C127.032 11.6375 127.026 11.6279 127.021 11.6173ZM127.104 26.5719C127.393 25.5103 127.586 24.3844 127.683 23.2263L127.644 23.4954C127.495 24.5087 127.34 25.5674 127.104 26.5719ZM1.48266 8.42837C1.61134 9.71514 1.99737 11.1306 2.51208 12.6104C1.90087 10.9376 1.57917 9.55429 1.48266 8.42837ZM7.69135 24.0627C7.59484 23.5801 7.46616 23.1619 7.33748 22.7437C7.36108 22.8263 7.38467 22.9078 7.40806 22.9886C7.51226 23.3485 7.61253 23.6949 7.69135 24.0627ZM5.56817 33.9387C6.34023 33.6491 7.17664 33.1666 7.88436 32.4589C7.30531 33.2631 6.53325 33.81 5.56817 33.9387ZM14.9647 30.7898C15.0966 30.9404 15.3507 30.984 15.8374 31.0674C15.9592 31.0883 16.0957 31.1117 16.2484 31.1399C19.0471 30.3679 20.5591 32.8127 17.2135 32.9092C16.9793 32.9152 16.7551 32.9221 16.5405 32.9287C13.3055 33.0278 12.2793 33.0593 13.0636 29.0167C13.0899 28.3866 13.0197 27.2582 12.9449 26.0557C12.8364 24.3116 12.7183 22.4116 12.8706 21.65C10.9083 21.1996 11.1978 19.559 11.1978 19.559C11.7125 19.9772 12.4846 20.0415 12.8706 20.0093C12.8956 19.0222 12.9449 17.8166 12.9939 16.6169L12.9939 16.6167L12.9939 16.6166V16.6166V16.6165V16.6165L12.9939 16.6164C13.0711 14.7278 13.1476 12.8541 13.128 11.8705C13.1738 11.5343 13.1235 10.926 13.0649 10.2178C12.8768 7.94428 12.6036 4.64203 15.1546 6.01567C16.2484 6.08001 19.2401 6.53038 18.9184 7.36678C18.7456 8.72827 17.208 8.27501 16.032 7.92835C15.4575 7.75898 14.9692 7.61506 14.7686 7.72064C14.9182 11.1916 14.7895 14.9408 14.6672 18.5024C14.6581 18.7699 14.6489 19.0364 14.6399 19.3016C14.5756 19.6876 14.6399 19.8807 14.8008 20.0093C14.9938 19.9772 15.0903 20.1058 15.0903 20.1058C15.2993 20.1248 15.5531 20.099 15.7923 20.0746C15.958 20.0577 16.1167 20.0415 16.2484 20.0415C19.3366 19.7198 17.9212 23.4836 15.9589 22.0038L14.7686 21.8108L14.7043 26.7649C14.8365 28.1894 14.8304 29.1118 14.8264 29.7195C14.8223 30.3323 14.8204 30.6251 14.9647 30.7898ZM14.4791 19.752C14.4791 19.8485 14.5112 19.9128 14.5434 19.9772H14.6078C14.5434 19.8807 14.5112 19.8163 14.4791 19.752ZM36.1934 16.7924C36.1612 17.0819 36.1612 17.4036 36.1612 17.7252V17.7253C36.0647 17.4358 36.0325 17.0819 36.1934 16.7924ZM36.2577 16.7281L36.1934 16.7924L36.1612 16.8246C36.1705 16.3534 36.1805 15.8829 36.1905 15.4128C36.2495 12.6417 36.3081 9.88734 36.2255 7.10942C36.3987 5.06026 39.5756 5.31564 41.3654 5.45952C41.5705 5.47601 41.7574 5.49103 41.9195 5.50096C42.5307 6.53038 41.9839 6.91641 41.1796 7.10942C41.1796 7.10942 41.1796 7.14159 41.1475 7.14159H41.0831C40.728 7.21557 40.3253 7.25553 39.95 7.29275C39.5094 7.33647 39.1067 7.37642 38.8634 7.46329C37.9905 7.53406 38.0173 7.86438 38.0683 8.49231C38.0868 8.72058 38.1085 8.98818 38.0914 9.29694C38.1333 9.48578 38.0898 10.2733 38.0354 11.2557C37.9231 13.2857 37.7648 16.1476 38.22 16.2777C39.153 15.956 40.1502 16.149 40.7936 16.535C40.8901 16.5672 40.9544 16.6315 41.0188 16.6959C41.6622 17.2428 41.6622 17.9827 40.1824 18.4652C39.8915 18.4652 39.6065 18.3459 39.325 18.228C38.9527 18.0722 38.5864 17.9188 38.22 18.047C37.9305 20.0093 37.8018 29.821 38.4452 30.9147C40.1502 31.0434 45.4581 32.8771 40.4397 33.4239C39.9074 33.3384 39.4221 33.2788 38.9845 33.2251L38.9843 33.2251C36.4602 32.9152 35.5222 32.8001 36.2899 29.0167C36.0325 25.2529 36.0647 21.5213 36.129 17.7896C36.1451 17.8218 36.1612 17.8459 36.1773 17.8701C36.1934 17.8942 36.2095 17.9183 36.2255 17.9505C36.2577 17.5323 36.2577 17.1141 36.2577 16.7281ZM104.199 11.3558C104.328 11.967 104.457 12.6426 104.585 13.3503C104.778 14.0902 104.907 14.8622 104.907 15.6665C105.872 22.6794 105.937 32.1693 98.1837 32.7162C96.8326 32.9092 95.1276 31.4294 96.6074 30.6574C96.8004 30.3357 96.8969 29.9175 96.9934 29.4671C96.9934 28.8045 96.9193 28.0542 96.842 27.2719L96.8419 27.2715C96.7503 26.3448 96.6543 25.3731 96.6717 24.4487C96.7505 21.8311 96.5041 18.3467 96.2641 14.9529L96.2641 14.9527V14.9525V14.9524V14.9523V14.9523L96.264 14.9519L96.264 14.9517C96.1118 12.7986 95.9621 10.682 95.8997 8.84657C95.8353 8.36403 95.8353 7.91366 95.8675 7.49546C95.8675 7.01292 95.8675 6.53038 95.8997 6.11217C96.4465 5.43662 97.1543 5.82265 97.669 6.20868C97.7816 6.25694 97.8861 6.29715 97.9907 6.33736C98.0952 6.37757 98.1998 6.41778 98.3124 6.46604C100.822 6.75556 103.041 9.29694 104.199 11.3558ZM95.9318 7.20593C95.8675 6.8199 96.0283 6.43387 96.35 6.24085C96.157 6.49821 95.9962 6.8199 95.9318 7.20593ZM97.0887 24.308C97.0899 24.3685 97.0899 24.4265 97.0899 24.4809L97.09 24.4816C97.1221 25.3821 97.1543 26.2826 97.2186 27.1509C97.2186 26.2645 97.1678 25.3018 97.0887 24.308ZM99.009 27.4075C99.2026 29.1035 99.3418 30.3228 99.3418 30.6895C105.422 30.4322 104.65 12.16 99.9208 8.71789C99.8565 8.62138 99.8243 8.58921 99.76 8.52487C99.4705 8.33186 99.1488 8.17101 98.8271 8.0745C97.8942 8.29969 97.7333 11.3236 97.8942 15.0874C97.9103 15.2965 97.9183 15.5056 97.9263 15.7147C97.9344 15.9238 97.9424 16.1329 97.9585 16.342C98.1822 20.1651 98.6759 24.4896 99.0088 27.4057L99.0089 27.4071L99.009 27.4075ZM74.1532 4.31069C73.7993 3.73164 73.2524 3.44212 72.4804 3.44212C68.234 3.95683 69.746 9.52212 70.7754 12.353C74.0245 18.3044 79.9437 31.9763 69.36 33.4561C67.7837 33.5205 63.1513 29.7566 65.3388 28.7594C65.4818 28.8547 65.6316 28.9566 65.7873 29.0624C67.839 30.4573 70.9093 32.5446 72.6734 29.4349C74.7734 25.8037 72.5431 20.7312 70.4092 15.8778C67.8799 10.1253 65.486 4.68075 70.5981 2.3086C69.9232 2.66294 69.2865 3.18494 68.8131 3.92466C69.2832 3.29785 69.906 2.7321 70.7112 2.25717C70.764 2.23363 70.8176 2.21042 70.8719 2.18751C71.2126 1.97071 71.5533 1.81355 71.9514 1.62989L71.9978 1.60847L72.0433 1.60276C72.2819 1.57271 72.4937 1.54603 72.7056 1.5763H72.7377C74.5714 0.739895 76.6302 5.08276 74.1532 4.31069ZM70.7112 2.25717C70.7325 2.24461 70.7539 2.23212 70.7754 2.21968C70.7161 2.24807 70.6569 2.2777 70.5981 2.3086C70.6354 2.2913 70.6731 2.27415 70.7112 2.25717ZM91.5257 31.022C91.5875 31.0177 91.6413 31.014 91.6855 31.0112C94.5486 31.1721 92.4254 33.1988 91.0743 32.8127C90.7021 32.6887 90.1273 32.7473 89.5195 32.8094C88.2362 32.9403 86.8061 33.0863 86.8279 31.5581C86.8699 29.936 86.8024 27.9612 86.7339 25.9562L86.7338 25.954L86.7338 25.9536C86.6447 23.3472 86.5538 20.6901 86.6992 18.6904C86.7242 17.7661 86.7643 16.788 86.8055 15.7827L86.8055 15.7822L86.8056 15.7815L86.8056 15.7808L86.8056 15.7801L86.8056 15.7793L86.8057 15.7785L86.8057 15.7777L86.8057 15.7768L86.8058 15.7758C86.9237 12.8993 87.0507 9.80149 86.8601 7.10942C86.6349 4.43937 92.7792 6.36953 92.8436 7.33461C92.685 8.69423 91.0259 8.20224 89.8341 7.84881C89.3339 7.7005 88.9161 7.57659 88.7259 7.62413C88.7259 10.2624 88.6382 14.1587 88.5742 16.9973L88.5651 17.4036C88.6616 17.9505 89.5945 18.2722 90.1735 18.1435C93.0044 18.047 92.1037 20.524 90.1092 20.1058C90.0819 20.1331 89.8287 20.0851 89.5413 20.0307C89.1514 19.9568 88.6986 19.8709 88.6616 19.945C88.7434 20.5647 88.7275 22.1193 88.7096 23.8674V23.8676C88.6783 26.9292 88.641 30.5842 89.1119 30.8504C89.3178 31.1739 90.868 31.0672 91.5257 31.022ZM80.8737 31.1136C80.8842 31.12 80.8965 31.1276 80.9088 31.1399C88.0825 30.6252 85.1873 33.4883 80.0723 32.9092C79.8793 32.9414 79.7185 32.8127 79.5576 32.5554C79.3325 32.3945 79.1716 32.1693 79.1716 31.8155V31.4294C78.605 28.6142 78.7888 22.3297 78.9506 16.7972C79.0828 12.2777 79.2003 8.26003 78.8821 7.04509C78.691 5.37324 81.869 5.82922 83.5451 6.0697C84.1266 6.15314 84.5273 6.21063 84.5439 6.14434C85.3481 6.59472 84.7691 7.68847 83.9005 7.59196C83.888 7.61696 83.4141 7.60797 82.8393 7.59705C81.9347 7.57988 80.7801 7.55795 80.7801 7.6563C80.9603 8.48017 80.8572 9.76249 80.7491 11.1075C80.587 13.1237 80.4136 15.2807 81.1661 16.2455C83.611 15.6343 85.895 17.854 82.099 17.9505C80.1595 17.1227 80.5156 23.5466 80.7505 27.7861C80.8351 29.3127 80.904 30.5561 80.8444 31.0756C80.8444 31.0955 80.8567 31.1031 80.8737 31.1136ZM110.923 21.1353C110.891 22.4864 110.698 31.1078 111.277 30.9147C112.982 31.0756 118.29 32.8771 113.271 33.3596C112.739 33.274 112.253 33.2145 111.816 33.1608L111.816 33.1607C109.292 32.8509 108.354 32.7358 109.121 28.9524C108.864 25.2208 108.896 21.4891 108.96 17.7575C108.977 17.7896 108.993 17.8138 109.009 17.8379C109.025 17.862 109.041 17.8862 109.057 17.9183C109.089 17.5001 109.089 17.1141 109.089 16.6959C109.073 16.7119 109.057 16.736 109.041 16.7601L109.041 16.7602L109.041 16.7604C109.025 16.7844 109.009 16.8085 108.993 16.8246C109.002 16.3536 109.012 15.8833 109.022 15.4134C109.081 12.6421 109.139 9.88754 109.057 7.10942C108.639 4.53588 118.354 4.85757 113.914 7.33461C112.951 7.03031 112.227 7.26571 111.491 7.50509C111.294 7.56939 111.095 7.63398 110.891 7.68847C110.955 8.30838 110.877 11.0447 110.817 13.132L110.817 13.1328V13.1331L110.817 13.1338V13.1341V13.1343L110.817 13.1349L110.817 13.1357L110.817 13.1366V13.1369L110.817 13.1376L110.817 13.1385V13.1388L110.817 13.1405L110.817 13.1473C110.787 14.1945 110.762 15.0761 110.762 15.4413C110.651 16.2977 111.509 16.2784 112.397 16.2584C113.31 16.2379 114.253 16.2166 114.204 17.1463C113.858 18.7901 112.982 18.5143 112.202 18.2686C111.241 17.9662 110.426 17.7096 110.923 21.1353ZM38.2522 30.9147C38.2522 30.9469 38.2844 31.0112 38.3166 31.0434C38.3326 31.0595 38.3487 31.0675 38.3648 31.0756C38.3809 31.0836 38.397 31.0917 38.4131 31.1077C38.3809 31.0756 38.3568 31.0434 38.3327 31.0113L38.3326 31.0112L38.3326 31.0112C38.3085 30.9791 38.2844 30.9469 38.2522 30.9147ZM109.025 17.7575C109.025 17.4358 109.025 17.1141 109.057 16.8246C108.896 17.0819 108.896 17.4358 109.025 17.7575ZM56.7174 6.36953C56.6209 5.6618 56.4279 4.24635 57.4573 4.27852C59.155 4.81032 58.7589 9.47759 58.3444 14.3611V14.3611V14.3612L58.3444 14.3613C58.107 17.1585 57.8636 20.0265 58.0042 22.229C57.6696 25.4524 57.6366 27.5891 57.6143 29.0334C57.5723 31.7547 57.5683 32.0175 55.6558 32.4589C55.5915 32.3624 55.5271 32.2337 55.4628 32.105C55.0768 31.8476 54.8838 31.3651 54.8516 30.6895C53.7889 28.0825 52.5765 24.2647 51.4012 20.5639L51.4011 20.5638C49.908 15.8622 48.4748 11.3493 47.4848 9.74731C47.1953 13.1573 47.324 25.1243 47.6135 26.8292C47.5082 27.2083 47.5787 27.9389 47.6568 28.7492C47.8175 30.4144 48.0106 32.4162 46.7771 32.3945C45.4681 32.9012 45.5863 26.3692 45.6767 21.3735C45.724 18.7571 45.7637 16.5621 45.5868 16.0203C45.616 15.7756 45.6198 15.1392 45.6248 14.2946C45.6476 10.4766 45.6959 2.40305 48.2247 7.01292C48.5085 7.96738 48.875 8.9839 49.2579 10.0459L49.2581 10.0466C49.3526 10.3087 49.4481 10.5736 49.5436 10.8411C49.6402 11.1306 49.7367 11.4201 49.8653 11.7418C50.3389 13.0118 50.8428 14.3313 51.3529 15.667L51.3532 15.6677L51.3532 15.6678C53.1301 20.3203 54.9813 25.1676 55.881 28.7916C56.3957 23.3871 56.7174 15.0553 56.7174 6.36953ZM58.0042 4.95408L57.8112 4.76106L58.0042 5.05059V4.95408ZM17.0208 45.9378V42.7209C17.0208 42.2384 16.86 41.8845 16.474 41.6271C16.1844 41.4019 15.7662 41.3054 15.2194 41.3054C14.5116 41.3054 13.9969 41.4663 13.6752 41.788C13.3857 42.0775 13.257 42.5279 13.257 43.1391H14.3186C14.3186 42.4314 14.6081 42.0775 15.1872 42.0775C15.7019 42.0775 15.9593 42.367 15.9593 42.9139C15.9593 43.1713 15.9271 43.3321 15.7984 43.4286C15.7019 43.5251 15.5411 43.5895 15.3159 43.6538L14.4473 43.9433C13.9969 44.072 13.7074 44.2328 13.5144 44.4259C13.2892 44.6832 13.1605 45.1014 13.1605 45.6805C13.1605 46.7421 13.6431 47.2568 14.6081 47.2568C15.2194 47.2568 15.7019 46.9672 15.9914 46.4204H16.0236C16.0236 46.9029 16.3453 47.1603 16.9565 47.1603C17.1174 47.1603 17.3104 47.1281 17.5034 47.0316V46.2917C17.4712 46.3239 17.4069 46.3239 17.3104 46.3239C17.1174 46.3239 17.0208 46.1952 17.0208 45.9378ZM15.9593 44.1363V45.0693C15.9593 45.97 15.6376 46.4204 14.9298 46.3882C14.7047 46.3882 14.5438 46.2917 14.4151 46.1308C14.3186 46.0022 14.2543 45.8091 14.2543 45.5518C14.2543 45.1014 14.4151 44.8119 14.7047 44.6511C14.7368 44.635 14.8092 44.6108 14.9178 44.5746C15.0264 44.5384 15.1711 44.4902 15.348 44.4259C15.6376 44.3294 15.8627 44.2328 15.9593 44.1363ZM21.6213 47.0637V41.4984H22.7472V42.367C23.0368 41.6915 23.455 41.3376 24.0662 41.3376H24.0662C24.1627 41.3376 24.227 41.3376 24.3557 41.3698V42.5279C24.1949 42.4957 24.034 42.4635 23.8732 42.4635C23.1333 42.4635 22.7472 42.8817 22.7472 43.7181V47.0637H21.6213ZM27.8943 41.4984V42.3348H28.6342V45.8091C28.6342 46.3238 28.7307 46.7099 28.9238 46.9029C29.0846 47.0637 29.3741 47.1602 29.7923 47.1602C30.1462 47.1602 30.4679 47.1281 30.6931 47.0637V46.2273C30.5644 46.2595 30.4357 46.2595 30.2749 46.2595C30.0818 46.2595 29.9532 46.2273 29.8888 46.1308C29.8245 46.0665 29.7923 45.9056 29.7923 45.6805V42.3348H30.6931V41.4984H29.7923V39.9221H28.6664V41.4984H27.8943ZM34.7781 40.7264V39.6004H35.904V40.7264H34.7781ZM34.7781 47.0959V41.4984H35.904V47.0959H34.7781ZM42.9169 43.1391H43.9463V42.8496C43.9463 41.8202 43.3673 41.3054 42.2092 41.3054C41.598 41.3054 41.1476 41.4341 40.7937 41.6915C40.4399 41.9488 40.279 42.3349 40.279 42.8496C40.279 43.2999 40.3755 43.6216 40.5686 43.879C40.7616 44.1042 41.0833 44.2972 41.5015 44.458L42.4022 44.7797C42.8204 44.9406 43.0134 45.1979 43.0134 45.6161C43.0134 46.163 42.7239 46.4525 42.1127 46.4525C41.5336 46.4525 41.2441 46.1308 41.2441 45.4553V45.2944H40.2469V45.4875C40.2469 46.0343 40.3755 46.4847 40.6329 46.7421C40.9224 47.0638 41.4049 47.2246 42.0805 47.2246C42.6596 47.2246 43.1421 47.0638 43.496 46.8064C43.882 46.5169 44.075 46.0987 44.075 45.5196C44.075 45.0693 43.9785 44.7476 43.7855 44.4902C43.5925 44.265 43.2708 44.072 42.8526 43.9112L42.1448 43.6538C41.8553 43.5573 41.6301 43.4608 41.5336 43.3321C41.4371 43.2356 41.3728 43.0748 41.3728 42.8496C41.3728 42.367 41.6301 42.1097 42.177 42.1097C42.6596 42.1097 42.9169 42.3992 42.9169 42.9782V43.1391ZM52.0854 42.7209V45.9378C52.0854 46.1952 52.1819 46.3238 52.3749 46.3238C52.4715 46.3238 52.5358 46.3238 52.568 46.2917V47.0316C52.3749 47.1281 52.1819 47.1602 52.0211 47.1602C51.4099 47.1602 51.0882 46.9029 51.0882 46.4204H51.056C50.7665 46.9672 50.2839 47.2568 49.6727 47.2568C48.7076 47.2568 48.2251 46.742 48.2251 45.6805C48.2251 45.1014 48.3538 44.6832 48.579 44.4258C48.772 44.2328 49.0615 44.072 49.5119 43.9433L50.3804 43.7181C50.6056 43.6538 50.7665 43.5895 50.863 43.4929C50.9917 43.3964 51.0238 43.2356 51.0238 42.9782C51.0238 42.4314 50.7665 42.1418 50.2518 42.1418C49.6727 42.1418 49.3832 42.4957 49.3832 43.2034H48.3216C48.3216 42.5922 48.4503 42.1418 48.7398 41.8523C49.0615 41.5306 49.5762 41.3698 50.2839 41.3698C50.8308 41.3698 51.249 41.4663 51.5385 41.6915C51.8924 41.8845 52.0854 42.2383 52.0854 42.7209ZM51.0238 45.0692V44.1363C50.9273 44.2328 50.7021 44.3293 50.4126 44.4258C50.2359 44.4901 50.0912 44.5383 49.9827 44.5745L49.9824 44.5746L49.9821 44.5747C49.8737 44.6109 49.8014 44.635 49.7692 44.651C49.4797 44.8119 49.3189 45.1014 49.3189 45.5518C49.3189 45.8091 49.3832 46.0022 49.4797 46.1308C49.6084 46.2917 49.7692 46.3882 49.9944 46.3882C50.67 46.4204 51.0238 45.97 51.0238 45.0692ZM56.6859 41.4984V47.0959H57.8118V43.3321C57.8118 42.9782 57.9083 42.6887 58.1013 42.4957C58.2622 42.3348 58.4552 42.2383 58.7126 42.2383C59.0021 42.2383 59.1951 42.3027 59.3238 42.4635C59.4203 42.6244 59.4846 42.8817 59.4846 43.2356V47.0637H60.6105V42.8496C60.6105 41.8523 60.1602 41.3376 59.2273 41.3376C58.5517 41.3376 58.0692 41.595 57.7796 42.1418H57.7475V41.4984H56.6859ZM71.1294 47.0959V39.6648H72.2553V42.1418C72.4805 41.595 72.8987 41.3376 73.5421 41.3376C74.0568 41.3376 74.475 41.4985 74.7324 41.8523C75.0863 42.3027 75.2793 43.1069 75.2793 44.2329C75.2793 46.2595 74.6681 47.2568 73.4456 47.2568C72.8344 47.2568 72.4484 46.9673 72.2232 46.4204H72.191V47.0959H71.1294ZM72.191 44.3615C72.191 45.0049 72.2553 45.4875 72.384 45.8092C72.5449 46.163 72.7701 46.356 73.1561 46.356C73.5099 46.356 73.7673 46.163 73.9282 45.8092C74.0568 45.4875 74.089 45.0049 74.089 44.2972C74.089 43.5573 74.0247 43.0104 73.896 42.7209C73.7673 42.4314 73.5421 42.2705 73.2204 42.2705C72.8022 42.2705 72.5449 42.4635 72.384 42.8174C72.2553 43.1069 72.191 43.6216 72.191 44.3615ZM83.257 45.9378V42.7209C83.257 42.2383 83.0962 41.8845 82.7101 41.6915C82.4206 41.4663 82.0024 41.3698 81.4555 41.3698C80.7478 41.3698 80.2331 41.5306 79.9114 41.8523C79.6219 42.1418 79.4932 42.5922 79.4932 43.2034H80.5548C80.5548 42.4957 80.8443 42.1418 81.4233 42.1418C81.9381 42.1418 82.1954 42.4314 82.1954 42.9782C82.1954 43.2356 82.1632 43.3964 82.0346 43.4929C81.9381 43.5895 81.7772 43.6538 81.552 43.7181L80.6835 43.9433C80.2331 44.072 79.9436 44.2328 79.7505 44.4258C79.5254 44.6832 79.3967 45.1014 79.3967 45.6805C79.3967 46.742 79.8792 47.2568 80.8443 47.2568C81.4555 47.2568 81.9381 46.9672 82.2276 46.4204H82.2598C82.2598 46.9029 82.5815 47.1602 83.1927 47.1602C83.3535 47.1602 83.5465 47.1281 83.7395 47.0316V46.2917C83.7074 46.3238 83.643 46.3238 83.5465 46.3238C83.3535 46.3238 83.257 46.1952 83.257 45.9378ZM82.1954 44.1363V45.0692C82.1954 45.97 81.8737 46.4204 81.166 46.3882C80.9408 46.3882 80.78 46.2917 80.6513 46.1308C80.5548 46.0022 80.4904 45.8091 80.4904 45.5518C80.4904 45.1014 80.6513 44.8119 80.9408 44.651C80.973 44.635 81.0453 44.6109 81.1537 44.5747L81.154 44.5746C81.2626 44.5384 81.4073 44.4902 81.5842 44.4258C81.8737 44.3293 82.0989 44.2328 82.1954 44.1363ZM87.8575 47.0959V39.6648H88.9834V43.8468L90.6884 41.4985H92.0073L90.3345 43.6538L92.2325 47.0959H91.0101L89.6268 44.5546L88.9834 45.3266V47.0959H87.8575ZM97.0576 44.4259H99.9851H100.017V43.8468C100.017 43.0104 99.8564 42.3992 99.599 42.0132C99.2773 41.5628 98.7626 41.3376 98.0227 41.3376C96.6395 41.3376 95.9639 42.3348 95.9639 44.3615C95.9639 45.5196 96.1891 46.3238 96.6394 46.7742C96.929 47.0637 97.3793 47.2246 97.9906 47.2246C98.6018 47.2246 99.0843 47.0316 99.4382 46.6777C99.792 46.2917 99.9529 45.8091 99.9529 45.1979H98.8913C98.8913 45.5196 98.827 45.8091 98.6983 46.0343C98.5374 46.3238 98.3122 46.4525 97.9906 46.4525C97.3793 46.4525 97.0576 45.8735 97.0576 44.7475V44.4259ZM98.8591 43.6538H97.0576V43.5573C97.0576 42.5922 97.3793 42.1097 97.9906 42.1097C98.5696 42.1097 98.8591 42.5279 98.8591 43.3643V43.6538ZM104.361 47.0637V41.4984H105.487V42.367C105.776 41.6915 106.194 41.3376 106.805 41.3376C106.902 41.3376 106.966 41.3376 107.095 41.3698V42.5279C106.934 42.4957 106.773 42.4635 106.612 42.4635C105.873 42.4635 105.487 42.8817 105.487 43.7181V47.0637H104.361ZM112.081 41.4984H110.859L112.499 47.1924L112.338 47.6428C112.242 47.9323 111.984 48.0932 111.566 48.0932C111.502 48.0932 111.373 48.0932 111.212 48.061V48.9617C111.405 48.9939 111.534 48.9939 111.663 48.9939C112.274 49.0261 112.692 48.9296 112.917 48.7365C113.207 48.5114 113.432 48.0288 113.625 47.2889L115.169 41.4984H113.979L113.078 45.7126H113.046L112.081 41.4984Z" fill="#3E524A"/>
</svg>
