
<svg width="95" height="96" viewBox="0 0 95 96" fill="none" xmlns="http://www.w3.org/2000/svg">
<path opacity="0.8" d="M0 49.7292L49.0833 0H94.9375V45.9833L45.3375 95.0667L0 49.7292ZM68.0708 39.0083C71.5153 39.0083 74.4431 37.8028 76.8542 35.3917C79.2653 32.9806 80.4708 30.0528 80.4708 26.6083C80.4708 23.1639 79.2653 20.2361 76.8542 17.825C74.4431 15.4139 71.5153 14.2083 68.0708 14.2083C64.6264 14.2083 61.6986 15.4139 59.2875 17.825C56.8764 20.2361 55.6708 23.1639 55.6708 26.6083C55.6708 30.0528 56.8764 32.9806 59.2875 35.3917C61.6986 37.8028 64.6264 39.0083 68.0708 39.0083Z" fill="#CACACA"/>
</svg>
