<?xml version="1.0" encoding="utf-8"?>
<!-- Generator: Adobe Illustrator 26.3.1, SVG Export Plug-In . SVG Version: 6.00 Build 0)  -->
<svg version="1.1" id="Layer_1" xmlns="http://www.w3.org/2000/svg" xmlns:xlink="http://www.w3.org/1999/xlink" x="0px" y="0px"
	 viewBox="0 0 512 512" style="enable-background:new 0 0 512 512;" xml:space="preserve">
<style type="text/css">.st0{fill-rule:evenodd;clip-rule:evenodd;}
</style>
<g>
	<path class="st0" d="M405.02,361.5c-6.17,17.46-30.69,31.91-50.25,36.14c-13.39,2.84-30.85,5.1-89.68-19.29
		c-66.07-27.38-157.82-124.89-157.82-189.78c0-33.04,19.05-71.5,52.35-71.5c16.03,0,19.56,0.31,24.83,12.96
		c6.17,14.9,21.22,51.62,23.01,55.39c7.4,15.44-7.53,24.47-18.36,37.93c-3.46,4.05-7.37,8.42-2.99,15.95
		c4.35,7.38,19.4,31.91,41.52,51.6c28.57,25.46,51.74,33.58,60.03,37.04c6.17,2.55,13.54,1.96,18.05-2.85
		c5.71-6.17,12.8-16.41,20.02-26.5c5.09-7.23,11.57-8.12,18.36-5.56c4.58,1.59,62.82,28.64,65.28,32.96
		C411.19,329.14,411.19,344.04,405.02,361.5 M256.05,0h-0.13C114.79,0,0,114.82,0,256c0,55.98,18.05,107.91,48.74,150.04
		l-31.9,95.12l98.38-31.44C155.7,496.51,204.01,512,256.05,512C397.18,512,512,397.17,512,256S397.18,0,256.05,0"/>
</g>
</svg>
