<?xml version="1.0" encoding="utf-8"?>
<!-- Generator: Adobe Illustrator 27.2.0, SVG Export Plug-In . SVG Version: 6.00 Build 0)  -->
<svg version="1.1" id="Calque_1" xmlns="http://www.w3.org/2000/svg" xmlns:xlink="http://www.w3.org/1999/xlink" x="0px" y="0px"
	 viewBox="0 0 924 924" style="enable-background:new 0 0 924 924;" xml:space="preserve">
<style type="text/css">
	.st0{fill-rule:evenodd;clip-rule:evenodd;}
</style>
<path class="st0" d="M676.377,261.039C606.864,157.799,486.455,91.508,351.063,98.077C159.895,107.419,5.482,265.41,0.144,456.765
	c-5.749,208.91,161.907,380.041,369.501,380.041c127.822,0,240.449-64.88,306.772-163.432L374.163,475.757
	c-6.058-4.004-6.058-13.038,0-17.041l302.241-197.609c39.708,58.914,62.793,129.726,62.793,206.078
	c0,76.378-23.101,147.212-62.833,206.138L907.983,835.01c6.879,4.517,16.016-0.308,16.016-8.521V107.881
	c0-8.212-9.137-13.14-16.016-8.52L676.377,261.039z"/>
</svg>
