<?xml version="1.0" encoding="UTF-8"?>
<svg width="491px" preserveAspectRatio="none" height="58px" viewBox="0 0 491 58" version="1.1" xmlns="http://www.w3.org/2000/svg" xmlns:xlink="http://www.w3.org/1999/xlink">
    <!-- Generator: Sketch 62 (91390) - https://sketch.com -->
    <title>Group 27</title>
    <desc>Created with Sketch.</desc>
    <g id="Desktop" stroke="none" stroke-width="1" fill="none" fill-rule="evenodd">
        <g id="Group-27" fill="#999897">
            <g id="Group-21">
                <path d="M490,0 C490.552285,-1.01453063e-16 491,0.44771525 491,1 L491,10 L490.991,10 L490.991,48 L491,48 L491,57 C491,57.5522847 490.552285,58 490,58 L1,58 C0.44771525,58 3.43909448e-12,57.5522847 3.43902684e-12,57 L3.43902684e-12,1 C3.43873716e-12,0.44771525 0.44771525,1.01453063e-16 1,0 L490,0 Z M233.312,10 L25.064,10 L25.064,48 L233.312,48 L233.312,10 Z M465.927,10 L258.376,10 L258.376,48 L465.927,48 L465.927,10 Z" id="Combined-Shape"></path>
            </g>
        </g>
    </g>
</svg>