
<svg width="190" height="190" viewBox="0 0 190 190" fill="none" xmlns="http://www.w3.org/2000/svg">
<rect width="190" height="190" rx="95" fill="#D9D9D9"/>
<path d="M154.256 85.096C154.256 72.975 142.671 63.1478 128.386 63.1478C128.204 63.1478 128.026 63.1488 127.843 63.1542C126.221 49.0349 112.194 38 95.1272 38C78.0601 38 64.0296 49.0341 62.4111 63.1534C62.2317 63.1502 62.0501 63.1469 61.8675 63.1469C47.5811 63.1469 36 72.9745 36 85.0952C36 95.3206 44.2439 103.914 55.4014 106.351V140.736C55.4014 147.068 55.7279 151.23 62.1236 151.23H128.623C135.02 151.23 134.857 147.068 134.857 140.736V106.351C146.011 103.915 154.257 95.3217 154.257 85.0963L154.256 85.096Z" fill="white"/>
</svg>
