
<svg width="190" height="190" viewBox="0 0 190 190" fill="none" xmlns="http://www.w3.org/2000/svg">
<rect width="190" height="190" rx="95" fill="#D9D9D9"/>
<mask id="path-2-inside-1_5461_25620" fill="white">
<path fill-rule="evenodd" clip-rule="evenodd" d="M40.75 55C40.75 52.7909 42.5409 51 44.75 51H92.95V92H40.75V55ZM40.75 97.5V134C40.75 136.209 42.5409 138 44.75 138H92.9499V97.5H40.75ZM98.4499 97.5V138H145.5C147.709 138 149.5 136.209 149.5 134V97.5H98.4499ZM149.5 92V55C149.5 52.7909 147.709 51 145.5 51H98.45V92H149.5ZM54.0001 72C54.0001 70.3431 55.3432 69 57.0001 69H77.1001C78.757 69 80.1001 70.3431 80.1001 72C80.1001 73.6569 78.757 75 77.1001 75H57.0001C55.3432 75 54.0001 73.6569 54.0001 72ZM71.1992 108C71.1992 106.343 69.8561 105 68.1992 105C66.5424 105 65.1992 106.343 65.1992 108V114.075H58.0996C56.4428 114.075 55.0996 115.418 55.0996 117.075C55.0996 118.732 56.4428 120.075 58.0996 120.075H65.1992V127C65.1992 128.657 66.5424 130 68.1992 130C69.8561 130 71.1992 128.657 71.1992 127V120.075H78.0996C79.7565 120.075 81.0996 118.732 81.0996 117.075C81.0996 115.418 79.7565 114.075 78.0996 114.075H71.1992V108ZM115 109C113.343 109 112 110.343 112 112C112 113.657 113.343 115 115 115H132.475C134.132 115 135.475 113.657 135.475 112C135.475 110.343 134.132 109 132.475 109H115ZM115 119C113.343 119 112 120.343 112 122C112 123.657 113.343 125 115 125H132.475C134.132 125 135.475 123.657 135.475 122C135.475 120.343 134.132 119 132.475 119H115ZM114.037 80.2078C112.671 79.0316 112.652 77.1078 113.995 75.911L118.792 71.6356L114.036 67.317C112.703 66.1069 112.738 64.1833 114.114 63.0207C115.491 61.858 117.687 61.8965 119.019 63.1066L123.647 67.3085L128.584 62.9087C129.927 61.7118 132.123 61.6951 133.49 62.8713C134.856 64.0475 134.875 65.9712 133.533 67.1681L128.466 71.6836L133.499 76.2532C134.831 77.4633 134.796 79.3869 133.42 80.5495C132.044 81.7122 129.848 81.6737 128.515 80.4636L123.611 76.0107L118.943 80.1704C117.6 81.3672 115.404 81.384 114.037 80.2078Z"/>
</mask>
<path fill-rule="evenodd" clip-rule="evenodd" d="M40.75 55C40.75 52.7909 42.5409 51 44.75 51H92.95V92H40.75V55ZM40.75 97.5V134C40.75 136.209 42.5409 138 44.75 138H92.9499V97.5H40.75ZM98.4499 97.5V138H145.5C147.709 138 149.5 136.209 149.5 134V97.5H98.4499ZM149.5 92V55C149.5 52.7909 147.709 51 145.5 51H98.45V92H149.5ZM54.0001 72C54.0001 70.3431 55.3432 69 57.0001 69H77.1001C78.757 69 80.1001 70.3431 80.1001 72C80.1001 73.6569 78.757 75 77.1001 75H57.0001C55.3432 75 54.0001 73.6569 54.0001 72ZM71.1992 108C71.1992 106.343 69.8561 105 68.1992 105C66.5424 105 65.1992 106.343 65.1992 108V114.075H58.0996C56.4428 114.075 55.0996 115.418 55.0996 117.075C55.0996 118.732 56.4428 120.075 58.0996 120.075H65.1992V127C65.1992 128.657 66.5424 130 68.1992 130C69.8561 130 71.1992 128.657 71.1992 127V120.075H78.0996C79.7565 120.075 81.0996 118.732 81.0996 117.075C81.0996 115.418 79.7565 114.075 78.0996 114.075H71.1992V108ZM115 109C113.343 109 112 110.343 112 112C112 113.657 113.343 115 115 115H132.475C134.132 115 135.475 113.657 135.475 112C135.475 110.343 134.132 109 132.475 109H115ZM115 119C113.343 119 112 120.343 112 122C112 123.657 113.343 125 115 125H132.475C134.132 125 135.475 123.657 135.475 122C135.475 120.343 134.132 119 132.475 119H115ZM114.037 80.2078C112.671 79.0316 112.652 77.1078 113.995 75.911L118.792 71.6356L114.036 67.317C112.703 66.1069 112.738 64.1833 114.114 63.0207C115.491 61.858 117.687 61.8965 119.019 63.1066L123.647 67.3085L128.584 62.9087C129.927 61.7118 132.123 61.6951 133.49 62.8713C134.856 64.0475 134.875 65.9712 133.533 67.1681L128.466 71.6836L133.499 76.2532C134.831 77.4633 134.796 79.3869 133.42 80.5495C132.044 81.7122 129.848 81.6737 128.515 80.4636L123.611 76.0107L118.943 80.1704C117.6 81.3672 115.404 81.384 114.037 80.2078Z" fill="white"/>
<path d="M92.95 51H103.825V40.125H92.95V51ZM92.95 92V102.875H103.825V92H92.95ZM40.75 92H29.875V102.875H40.75V92ZM40.75 97.5V86.625H29.875V97.5H40.75ZM92.9499 138V148.875H103.825V138H92.9499ZM92.9499 97.5H103.825V86.625H92.9499V97.5ZM98.4499 138H87.5749V148.875H98.4499V138ZM98.4499 97.5V86.625H87.5749V97.5H98.4499ZM149.5 97.5H160.375V86.625H149.5V97.5ZM149.5 92V102.875H160.375V92H149.5ZM98.45 51V40.125H87.575V51H98.45ZM98.45 92H87.575V102.875H98.45V92ZM65.1992 114.075V124.95H76.0742V114.075H65.1992ZM65.1992 120.075H76.0742V109.2H65.1992V120.075ZM71.1992 120.075V109.2H60.3242V120.075H71.1992ZM71.1992 114.075H60.3242V124.95H71.1992V114.075ZM113.995 75.911L121.23 84.0297L121.23 84.0297L113.995 75.911ZM114.037 80.2078L121.132 71.9656L121.132 71.9656L114.037 80.2078ZM118.792 71.6356L126.028 79.7543L135.053 71.7109L126.102 63.5843L118.792 71.6356ZM114.036 67.317L121.346 59.2657L121.346 59.2656L114.036 67.317ZM114.114 63.0207L121.133 71.328L121.133 71.3279L114.114 63.0207ZM119.019 63.1066L111.709 71.1579L111.709 71.1579L119.019 63.1066ZM123.647 67.3085L116.337 75.3598L123.58 81.936L130.883 75.4272L123.647 67.3085ZM128.584 62.9087L121.349 54.79V54.79L128.584 62.9087ZM133.49 62.8713L126.395 71.1135L126.395 71.1135L133.49 62.8713ZM133.533 67.1681L126.297 59.0494V59.0494L133.533 67.1681ZM128.466 71.6836L121.23 63.565L112.205 71.6084L121.155 79.735L128.466 71.6836ZM133.499 76.2532L126.188 84.3046L126.188 84.3046L133.499 76.2532ZM128.515 80.4636L121.204 88.5149L121.204 88.515L128.515 80.4636ZM123.611 76.0107L130.921 67.9594L123.678 61.3832L116.375 67.8921L123.611 76.0107ZM118.943 80.1704L111.708 72.0517L111.708 72.0518L118.943 80.1704ZM44.75 40.125C36.5348 40.125 29.875 46.7848 29.875 55H51.625C51.625 58.797 48.547 61.875 44.75 61.875V40.125ZM92.95 40.125H44.75V61.875H92.95V40.125ZM103.825 92V51H82.075V92H103.825ZM40.75 102.875H92.95V81.125H40.75V102.875ZM29.875 55V92H51.625V55H29.875ZM51.625 134V97.5H29.875V134H51.625ZM44.75 127.125C48.547 127.125 51.625 130.203 51.625 134H29.875C29.875 142.215 36.5348 148.875 44.75 148.875V127.125ZM92.9499 127.125H44.75V148.875H92.9499V127.125ZM82.0749 97.5V138H103.825V97.5H82.0749ZM40.75 108.375H92.9499V86.625H40.75V108.375ZM109.325 138V97.5H87.5749V138H109.325ZM145.5 127.125H98.4499V148.875H145.5V127.125ZM138.625 134C138.625 130.203 141.703 127.125 145.5 127.125V148.875C153.715 148.875 160.375 142.215 160.375 134H138.625ZM138.625 97.5V134H160.375V97.5H138.625ZM98.4499 108.375H149.5V86.625H98.4499V108.375ZM138.625 55V92H160.375V55H138.625ZM145.5 61.875C141.703 61.875 138.625 58.797 138.625 55H160.375C160.375 46.7848 153.715 40.125 145.5 40.125V61.875ZM98.45 61.875H145.5V40.125H98.45V61.875ZM109.325 92V51H87.575V92H109.325ZM149.5 81.125H98.45V102.875H149.5V81.125ZM57.0001 58.125C49.3371 58.125 43.1251 64.337 43.1251 72H64.8751C64.8751 76.3492 61.3493 79.875 57.0001 79.875V58.125ZM77.1001 58.125H57.0001V79.875H77.1001V58.125ZM90.9751 72C90.9751 64.337 84.763 58.125 77.1001 58.125V79.875C72.7509 79.875 69.2251 76.3492 69.2251 72H90.9751ZM77.1001 85.875C84.763 85.875 90.9751 79.663 90.9751 72H69.2251C69.2251 67.6508 72.7509 64.125 77.1001 64.125V85.875ZM57.0001 85.875H77.1001V64.125H57.0001V85.875ZM43.1251 72C43.1251 79.663 49.3371 85.875 57.0001 85.875V64.125C61.3493 64.125 64.8751 67.6508 64.8751 72H43.1251ZM68.1992 115.875C63.85 115.875 60.3242 112.349 60.3242 108H82.0742C82.0742 100.337 75.8622 94.125 68.1992 94.125V115.875ZM76.0742 108C76.0742 112.349 72.5485 115.875 68.1992 115.875V94.125C60.5363 94.125 54.3242 100.337 54.3242 108H76.0742ZM76.0742 114.075V108H54.3242V114.075H76.0742ZM58.0996 124.95H65.1992V103.2H58.0996V124.95ZM65.9746 117.075C65.9746 121.424 62.4489 124.95 58.0996 124.95V103.2C50.4367 103.2 44.2246 109.412 44.2246 117.075H65.9746ZM58.0996 109.2C62.4489 109.2 65.9746 112.726 65.9746 117.075H44.2246C44.2246 124.738 50.4367 130.95 58.0996 130.95V109.2ZM65.1992 109.2H58.0996V130.95H65.1992V109.2ZM76.0742 127V120.075H54.3242V127H76.0742ZM68.1992 119.125C72.5485 119.125 76.0742 122.651 76.0742 127H54.3242C54.3242 134.663 60.5363 140.875 68.1992 140.875V119.125ZM60.3242 127C60.3242 122.651 63.85 119.125 68.1992 119.125V140.875C75.8622 140.875 82.0742 134.663 82.0742 127H60.3242ZM60.3242 120.075V127H82.0742V120.075H60.3242ZM78.0996 109.2H71.1992V130.95H78.0996V109.2ZM70.2246 117.075C70.2246 112.726 73.7504 109.2 78.0996 109.2V130.95C85.7626 130.95 91.9746 124.738 91.9746 117.075H70.2246ZM78.0996 124.95C73.7504 124.95 70.2246 121.424 70.2246 117.075H91.9746C91.9746 109.412 85.7626 103.2 78.0996 103.2V124.95ZM71.1992 124.95H78.0996V103.2H71.1992V124.95ZM60.3242 108V114.075H82.0742V108H60.3242ZM122.875 112C122.875 116.349 119.349 119.875 115 119.875V98.125C107.337 98.125 101.125 104.337 101.125 112H122.875ZM115 104.125C119.349 104.125 122.875 107.651 122.875 112H101.125C101.125 119.663 107.337 125.875 115 125.875V104.125ZM132.475 104.125H115V125.875H132.475V104.125ZM124.6 112C124.6 107.651 128.126 104.125 132.475 104.125V125.875C140.138 125.875 146.35 119.663 146.35 112H124.6ZM132.475 119.875C128.126 119.875 124.6 116.349 124.6 112H146.35C146.35 104.337 140.138 98.125 132.475 98.125V119.875ZM115 119.875H132.475V98.125H115V119.875ZM122.875 122C122.875 126.349 119.349 129.875 115 129.875V108.125C107.337 108.125 101.125 114.337 101.125 122H122.875ZM115 114.125C119.349 114.125 122.875 117.651 122.875 122H101.125C101.125 129.663 107.337 135.875 115 135.875V114.125ZM132.475 114.125H115V135.875H132.475V114.125ZM124.6 122C124.6 117.651 128.126 114.125 132.475 114.125V135.875C140.138 135.875 146.35 129.663 146.35 122H124.6ZM132.475 129.875C128.126 129.875 124.6 126.349 124.6 122H146.35C146.35 114.337 140.138 108.125 132.475 108.125V129.875ZM115 129.875H132.475V108.125H115V129.875ZM106.759 67.7923C100.486 73.3831 100.615 83.003 106.943 88.4499L121.132 71.9656C122.722 73.3339 123.85 75.4799 123.875 77.9592C123.899 80.4408 122.811 82.621 121.23 84.0297L106.759 67.7923ZM111.557 63.5169L106.759 67.7924L121.23 84.0297L126.028 79.7543L111.557 63.5169ZM106.725 75.3683L111.482 79.6869L126.102 63.5843L121.346 59.2657L106.725 75.3683ZM107.096 54.7134C100.705 60.1129 100.517 69.7316 106.725 75.3683L121.346 59.2656C122.909 60.6845 123.978 62.8698 123.932 65.3502C123.887 67.8298 122.74 69.9702 121.133 71.328L107.096 54.7134ZM126.33 55.0553C120.955 50.1754 112.632 50.0364 107.096 54.7134L121.133 71.3279C119.597 72.6254 117.849 73.0727 116.393 73.0472C114.936 73.0217 113.202 72.5133 111.709 71.1579L126.33 55.0553ZM130.958 59.2572L126.33 55.0553L111.709 71.1579L116.337 75.3598L130.958 59.2572ZM121.349 54.79L116.412 59.1899L130.883 75.4272L135.82 71.0273L121.349 54.79ZM140.584 54.6292C135.1 49.9087 126.776 49.9527 121.349 54.79L135.82 71.0273C134.31 72.3725 132.567 72.8637 131.111 72.8748C129.654 72.8859 127.915 72.4214 126.395 71.1135L140.584 54.6292ZM140.768 75.2867C147.041 69.696 146.912 60.0761 140.584 54.6291L126.395 71.1135C124.806 69.7452 123.677 67.5992 123.653 65.1199C123.628 62.6383 124.716 60.4581 126.297 59.0494L140.768 75.2867ZM135.701 79.8023L140.768 75.2867L126.297 59.0494L121.23 63.565L135.701 79.8023ZM140.809 68.2019L135.776 63.6323L121.155 79.735L126.188 84.3046L140.809 68.2019ZM140.438 88.8568C146.829 83.4573 147.017 73.8387 140.809 68.2019L126.188 84.3046C124.626 82.8857 123.557 80.7005 123.602 78.22C123.647 75.7404 124.795 73.6 126.402 72.2422L140.438 88.8568ZM121.204 88.515C126.579 93.3948 134.902 93.5338 140.438 88.8568L126.402 72.2422C127.937 70.9448 129.685 70.4975 131.142 70.523C132.598 70.5485 134.332 71.0569 135.825 72.4123L121.204 88.515ZM116.3 84.062L121.204 88.5149L135.825 72.4123L130.921 67.9594L116.3 84.062ZM126.179 88.2891L130.846 84.1294L116.375 67.8921L111.708 72.0517L126.179 88.2891ZM106.943 88.4499C112.427 93.1704 120.751 93.1264 126.179 88.289L111.708 72.0518C113.217 70.7066 114.96 70.2154 116.416 70.2043C117.873 70.1932 119.613 70.6577 121.132 71.9656L106.943 88.4499Z" fill="white" mask="url(#path-2-inside-1_5461_25620)"/>
</svg>
