
<svg width="190" height="190" viewBox="0 0 190 190" fill="none" xmlns="http://www.w3.org/2000/svg">
<rect width="190" height="190" rx="95" fill="#D9D9D9"/>
<path fill-rule="evenodd" clip-rule="evenodd" d="M84.2727 39C83.2066 39 82.3423 39.8643 82.3423 40.9304V53.9839C82.3423 54.1691 82.3684 54.3482 82.4171 54.5178C79.409 55.4256 76.5441 56.6636 73.8645 58.1896C73.8142 58.1244 73.7592 58.0617 73.6994 58.0019L64.4693 48.7717C63.7154 48.0178 62.4931 48.0179 61.7392 48.7717L48.024 62.487C47.2701 63.2409 47.2701 64.4631 48.024 65.217L57.2541 74.4472C57.3857 74.5788 57.5316 74.6874 57.6868 74.7731C56.2289 77.488 55.0626 80.3827 54.2297 83.4155C54.1492 83.4053 54.0671 83.4 53.9839 83.4H40.9304C39.8643 83.4 39 84.2643 39 85.3304L39 104.727C39 105.793 39.8643 106.657 40.9304 106.657H53.9839C54.1688 106.657 54.3478 106.631 54.5171 106.583C55.425 109.591 56.6631 112.456 58.1893 115.136C58.1242 115.186 58.0616 115.241 58.002 115.3L48.7718 124.531C48.0179 125.284 48.0179 126.507 48.7718 127.261L62.4871 140.976C63.2409 141.73 64.4632 141.73 65.2171 140.976L74.4473 131.746C74.5788 131.614 74.6874 131.468 74.773 131.313C77.1885 132.61 79.7463 133.677 82.417 134.483C82.3683 134.652 82.3423 134.831 82.3423 135.016V148.069C82.3423 149.136 83.2066 150 84.2727 150H103.669C104.735 150 105.599 149.136 105.599 148.069V135.016C105.599 134.933 105.594 134.851 105.584 134.77C108.617 133.937 111.512 132.771 114.227 131.313C114.312 131.468 114.421 131.614 114.553 131.746L123.783 140.976C124.537 141.73 125.759 141.73 126.513 140.976L140.228 127.261C140.982 126.507 140.982 125.285 140.228 124.531L130.998 115.301C130.938 115.241 130.875 115.186 130.81 115.135C132.336 112.456 133.574 109.591 134.482 106.582C134.652 106.631 134.831 106.657 135.016 106.657H148.069C149.136 106.657 150 105.793 150 104.727V85.3304C150 84.2643 149.136 83.4 148.069 83.4H135.016C134.933 83.4 134.85 83.4053 134.77 83.4156C133.937 80.3828 132.77 77.488 131.312 74.7731C131.468 74.6874 131.614 74.5787 131.745 74.447L140.976 65.2168C141.73 64.463 141.73 63.2407 140.976 62.4868L127.26 48.7716C126.507 48.0177 125.284 48.0177 124.53 48.7716L115.3 58.0017C115.24 58.0616 115.185 58.1244 115.135 58.1897C112.16 56.4957 108.958 55.1566 105.584 54.2301C105.594 54.1495 105.599 54.0673 105.599 53.9839V40.9304C105.599 39.8643 104.735 39 103.669 39H84.2727ZM94.5458 117.275C107.098 117.275 117.274 107.099 117.274 94.546C117.274 81.9933 107.098 71.8174 94.5458 71.8174C81.9932 71.8174 71.8173 81.9933 71.8173 94.546C71.8173 107.099 81.9932 117.275 94.5458 117.275Z" fill="white"/>
</svg>
