
<svg width="190" height="190" viewBox="0 0 190 190" fill="none" xmlns="http://www.w3.org/2000/svg">
<rect width="190" height="190" rx="95" fill="#D9D9D9"/>
<path d="M75.0435 77H113.305L104.466 94.4358H84.6089L75.0435 77Z" fill="white"/>
<path d="M103.74 98.5H85.0935L78.1919 150.966L94.9012 167.069L111.368 150.966L103.74 98.5Z" fill="white"/>
<path d="M93.1037 67.747L54.5612 40.8599C53.831 40.3505 52.8521 40.3851 52.1597 40.9448L36.5103 53.5937C35.6691 54.2736 35.5209 55.4992 36.1758 56.3601L66.4211 96.1178C67.1702 97.1025 68.6247 97.1776 69.4713 96.2754L93.4179 70.7559C94.2522 69.8668 94.1037 68.4446 93.1037 67.747Z" fill="white"/>
<path d="M96.8963 67.747L135.439 40.8599C136.169 40.3505 137.148 40.3851 137.84 40.9448L153.49 53.5937C154.331 54.2736 154.479 55.4992 153.824 56.3601L123.579 96.1178C122.83 97.1025 121.375 97.1776 120.529 96.2754L96.5821 70.7559C95.7478 69.8668 95.8963 68.4446 96.8963 67.747Z" fill="white"/>
</svg>
