
<svg width="190" height="190" viewBox="0 0 190 190" fill="none" xmlns="http://www.w3.org/2000/svg">
<rect width="190" height="190" rx="95" fill="#D9D9D9"/>
<path fill-rule="evenodd" clip-rule="evenodd" d="M157.434 120.24H32.2295V124.214H49.7178L50.7896 129.573C50.9754 130.502 51.791 131.171 52.7383 131.171H136.924C137.871 131.171 138.687 130.502 138.873 129.573L139.944 124.214H157.434V120.24Z" fill="white"/>
<path fill-rule="evenodd" clip-rule="evenodd" d="M103.065 53.0198C103.52 52.0954 103.775 51.0554 103.775 49.9558C103.775 46.1142 100.66 43 96.8189 43C92.9774 43 89.8631 46.1142 89.8631 49.9558C89.8631 50.9052 90.0534 51.8102 90.3978 52.6347C75.3541 53.6983 61.1366 60.1474 50.4029 70.8811C38.6197 82.6643 32 98.6457 32 115.31L94.8313 115.31H157.663C157.663 98.6457 151.043 82.6643 139.26 70.8811C129.435 61.0558 116.69 54.8206 103.065 53.0198Z" fill="white"/>
</svg>
