
<svg fill="none" height="44" viewBox="0 0 186 44" width="186" xmlns="http://www.w3.org/2000/svg" xmlns:xlink="http://www.w3.org/1999/xlink"><mask id="a" fill="#fff" height="26" maskUnits="userSpaceOnUse" width="22" x="154.213" y="9"><path d="m154.213 9h22v26h-22z" fill="#fff"/><path d="m175.213 23.5095v-5.0317l-8.128 8.5387v-17.0165h-3.773v17.0165l-8.099-8.5387v5.0317l9.986 10.4905z" fill="#fff"/></mask><path d="m20.0533 1.10943c.7444-.712026 1.7348-1.10943 2.7649-1.10943h158.3948c2.209 0 4 1.79086 4 4v36c0 2.2091-1.791 4-4 4h-158.3948c-1.0301 0-2.0205-.3974-2.7649-1.1094l-18.81819-18c-1.646812-1.5752-1.646814-4.206 0-5.7812z" fill="#0063e1"/><path d="m175.213 23.5095v-5.0317l-8.128 8.5387v-17.0165h-3.773v17.0165l-8.099-8.5387v5.0317l9.986 10.4905z" fill="#fff"/><path d="m175.213 23.5095.362.3453.138-.1449v-.2004zm0-5.0317h.5v-1.2505l-.862.9057zm-8.128 8.5387h-.5v1.2505l.863-.9058zm0-17.0165h.5v-.5h-.5zm-3.773 0v-.5h-.5v.5zm0 17.0165-.363.3441.863.9097v-1.2538zm-8.099-8.5387.363-.3441-.863-.9097v1.2538zm0 5.0317h-.5v.2l.138.1448zm9.986 10.4905-.363.3447.362.38.362-.3794zm10.514-10.4905v-5.0317h-1v5.0317zm-.862-5.3765-8.128 8.5388.725.6894 8.127-8.5387zm-7.266 8.8835v-17.0165h-1v17.0165zm-.5-17.5165h-3.773v1h3.773zm-4.273.5v17.0165h1v-17.0165zm.863 16.6724-8.099-8.5387-.726.6881 8.099 8.5388zm-8.962-8.1946v5.0317h1v-5.0317zm.138 5.3765 9.985 10.4904.725-.6894-9.986-10.4905zm10.709 10.491 10.015-10.4905-.724-.6905-10.014 10.4904z" fill="#fff" mask="url(#a)"/><path d="m145.713 6v32" stroke="#fff" stroke-opacity=".08"/></svg>