<?xml version="1.0" encoding="UTF-8"?>
<svg width="41px" height="54px" viewBox="0 0 41 54" version="1.1" xmlns="http://www.w3.org/2000/svg" xmlns:xlink="http://www.w3.org/1999/xlink">
    <title>arrow</title>
    <defs>
        <filter x="-52.2%" y="-33.3%" width="204.3%" height="166.7%" filterUnits="objectBoundingBox" id="filter-1">
            <feOffset dx="0" dy="2" in="SourceAlpha" result="shadowOffsetOuter1"></feOffset>
            <feGaussianBlur stdDeviation="2" in="shadowOffsetOuter1" result="shadowBlurOuter1"></feGaussianBlur>
            <feColorMatrix values="0 0 0 0 0   0 0 0 0 0   0 0 0 0 0  0 0 0 0.35 0" type="matrix" in="shadowBlurOuter1" result="shadowMatrixOuter1"></feColorMatrix>
            <feMerge>
                <feMergeNode in="shadowMatrixOuter1"></feMergeNode>
                <feMergeNode in="SourceGraphic"></feMergeNode>
            </feMerge>
        </filter>
    </defs>
    <g id="Page-1" stroke="none" stroke-width="1" fill="none" fill-rule="evenodd">
        <g id="Artboard" transform="translate(-199.000000, -158.000000)" fill-rule="nonzero">
            <g id="arrow" filter="url(#filter-1)" transform="translate(208.000000, 167.000000)">
                <polygon id="Path" fill="#000000" points="10.9 20.9 13 20.9 18.2 20.9 9.3 12.1 8.5 11.2 2 4.80005 2 13.9 2 15 2 26.9 5.5 23.4 7 22 7.9 24 11.7 33.2001 15.4 31.6 11.7 23"></polygon>
                <path d="M23,23 L0,0 L0,31.6 L6.4,25.4 L10.9,36 L18.1,33 L13.9,23 L23,23 Z M15.4,31.6 L11.7,33.1 L7.9,24 L7,22 L5.5,23.4 L2,26.9 L2,15 L2,13.9 L2,4.8 L8.5,11.3 L9.4,12.2 L18.2,21 L13,21 L10.8,21 L11.7,23 L15.4,31.6 Z" id="Shape" fill="#FFFFFF"></path>
            </g>
        </g>
    </g>
</svg>