<?xml version="1.0" encoding="UTF-8"?>
<svg width="48px" height="50px" viewBox="0 0 48 50" version="1.1" xmlns="http://www.w3.org/2000/svg" xmlns:xlink="http://www.w3.org/1999/xlink">
    <title>pointer</title>
    <defs>
        <filter x="-40.5%" y="-38.2%" width="181.1%" height="176.5%" filterUnits="objectBoundingBox" id="filter-1">
            <feOffset dx="0" dy="2" in="SourceAlpha" result="shadowOffsetOuter1"></feOffset>
            <feGaussianBlur stdDeviation="2" in="shadowOffsetOuter1" result="shadowBlurOuter1"></feGaussianBlur>
            <feColorMatrix values="0 0 0 0 0   0 0 0 0 0   0 0 0 0 0  0 0 0 0.35 0" type="matrix" in="shadowBlurOuter1" result="shadowMatrixOuter1"></feColorMatrix>
            <feMerge>
                <feMergeNode in="shadowMatrixOuter1"></feMergeNode>
                <feMergeNode in="SourceGraphic"></feMergeNode>
            </feMerge>
        </filter>
    </defs>
    <g id="Page-1" stroke="none" stroke-width="1" fill="none" fill-rule="evenodd">
        <g id="Artboard" transform="translate(-274.000000, -176.000000)" fill-rule="nonzero">
            <g id="pointer" filter="url(#filter-1)" transform="translate(283.000000, 185.000000)">
                <path d="M22.6,25.5738954 C23,25.5738954 23.4,25.2738954 23.4,24.7738954 L23.4,17.9738954 C23.4,17.5738954 23.1,17.1738954 22.6,17.1738954 C22.2,17.1738954 21.8,17.4738954 21.8,17.9738954 L21.8,24.7738954 C21.8,25.2738954 22.2,25.5738954 22.6,25.5738954 Z M18.6,25.6738954 C19,25.6738954 19.3,25.3738954 19.3,24.8738954 L19.3,18.0738954 C19.3,17.6738954 19,17.2738954 18.5,17.2738954 C18.1,17.2738954 17.7,17.5738954 17.7,18.0738954 L17.7,24.8738954 C17.9,25.2738954 18.2,25.6738954 18.6,25.6738954 Z M15.5,18.0738954 C15.5,17.6738954 15.2,17.2738954 14.7,17.2738954 C14.3,17.2738954 13.9,17.6738954 14,18.0738954 L14,24.7738954 C14,25.1738954 14.3,25.5738954 14.8,25.5738954 C15.2,25.5738954 15.6,25.2738954 15.6,24.7738954 L15.5,18.0738954 Z M3.6,13.2738954 C4.4,13.3738954 5.1,13.8738954 5.8,14.4738954 C6.1,14.7738954 6.6,15.3738954 6.9,15.6738954 L7.1,15.8738954 C7.3,16.0738954 7.4,16.2738954 7.5,16.3738954 C7.6,16.4738954 7.7,16.6738954 7.8,16.8738954 L8,17.1738954 C8.2,17.4738954 8.6,17.9738954 9.2,17.6738954 C9.8,17.3738954 9.6,16.7738954 9.6,16.4738954 L9.6,16.2738954 C9.4,15.2738954 9.2,13.6738954 8.9,12.2738954 C8.7,11.3738954 8.6,11.0738954 8.5,10.4738954 L8.4,10.0738954 C8.2,9.67389539 8.1,9.17389539 7.9,8.67389539 L7.7,7.77389539 C7.6,6.97389539 7.3,5.67389539 7.2,4.97389539 C7,3.47389539 7.2,2.37393539 7.5,1.87393539 C7.8,1.47393539 8.7,1.37394539 9.1,1.67394539 C9.8,2.07394539 10.3,3.17389539 10.5,3.67389539 L10.6,3.87389539 C11,4.77389539 11.3,5.87389539 11.6,7.57389539 C11.7,8.47389539 11.9,9.47389539 12.1,10.4738954 C12.3,11.4738954 12.5,12.6738954 12.5,12.9738954 C12.5,13.3738954 12.8,13.6738954 13.2,13.6738954 C13.6,13.6738954 13.9,13.3738954 14,12.9738954 C14,12.5738954 14,12.1738954 14,11.6738954 C14,11.0738954 13.9,10.4738954 14,10.0738954 C14.1,9.67389539 14.4,9.17389539 14.8,9.07389539 C15.3,8.97389539 15.8,8.87389539 16.2,8.97389539 C16.6,9.07389539 17.1,9.37389539 17.2,9.57389539 C17.5,10.1738954 17.7,11.1738954 17.8,12.6738954 C17.8,12.8738954 17.9,13.4738954 18.5,13.5738954 C18.9,13.5738954 19.2,13.3738954 19.3,12.9738954 C19.4,12.6738954 19.4,12.2738954 19.5,11.8738954 C19.5,11.2738954 19.6,10.3738954 19.8,10.0738954 C19.9,9.77389539 20.5,9.47389539 20.6,9.47389539 C21.2,9.37389539 21.8,9.37389539 22.2,9.47389539 C22.4,9.47389539 22.9,9.87389539 23,10.0738954 C23.2,10.4738954 23.5,11.6738954 23.6,12.9738954 C23.6,13.3738954 23.9,13.6738954 24.3,13.6738954 C25,13.6738954 25.1,13.0738954 25.2,12.8738954 C25.3,12.5738954 25.4,12.0738954 25.6,11.7738954 C25.9,11.3738954 26.6,11.0738954 27.1,11.2738954 C27.8,11.4738954 27.9,12.0738954 27.9,12.6738954 C27.9,13.7738954 27.9,13.8738954 27.9,14.3738954 L27.9,14.7738954 C27.9,15.6738954 27.9,16.3738954 27.8,17.0738954 C27.7,18.1738954 27.6,19.6738954 27.4,20.3738954 C27.2,20.9738954 26.7,22.1738954 26.3,22.7738954 C25.9,23.1738954 24.1,25.4738954 23.8,26.6738954 C23.6,27.4738954 23.6,27.7738954 23.6,28.1738954 C23.6,28.2738954 23.6,28.4738954 23.6,28.6738954 C23.6,29.0738954 23.6,29.4738954 23.7,29.8738954 C23.2,29.8738954 22.7,29.9738954 22.3,29.8738954 C22,29.7738954 21.3,28.8738954 20.9,28.1738954 C20.6,27.6738954 20.1,27.3738954 19.6,27.2738954 C19.1,27.2738954 18.6,27.5738954 18.3,28.0738954 C17.7,29.0738954 17,29.8738954 16.8,29.8738954 C15.8,29.9738954 14,29.9738954 12.3,29.9738954 C12.1,29.9738954 11.9,29.9738954 11.6,29.9738954 C11.6,29.1738954 11.5,28.0738954 10.8,27.4738954 C10.5,27.1738954 10,26.7738954 9.6,26.3738954 C9.2,25.9738954 8.8,25.6738954 8.6,25.4738954 L7,23.6738954 C6.8,23.3738954 6.5,22.8738954 6.2,22.3738954 C5.8,21.6738954 5.3,20.7738954 4.6,19.8738954 C4.3,19.4738954 3.9,18.8738954 3.4,18.3738954 C2.8,17.4738954 2.1,16.5738954 1.8,16.0738954 C1.5,15.4738954 1.5,15.2738954 1.6,14.6738954 C1.7,13.7738954 2.7,13.1738954 3.6,13.2738954 Z" id="Shape" fill="#FFFFFF"></path>
                <path d="M22.6,17.2738954 C22.2,17.2738954 21.8,17.5738954 21.8,18.0738954 L21.8,24.8738954 C21.8,25.2738954 22.1,25.6738954 22.6,25.6738954 C23,25.6738954 23.4,25.3738954 23.4,24.8738954 L23.4,18.0738954 C23.3,17.6738954 23,17.2738954 22.6,17.2738954 Z" id="Path" fill="#000000"></path>
                <path d="M18.6,17.2738954 C18.2,17.2738954 17.8,17.5738954 17.8,18.0738954 L17.8,24.8738954 C17.8,25.2738954 18.1,25.6738954 18.6,25.6738954 C19,25.6738954 19.3,25.3738954 19.3,24.8738954 L19.3,18.0738954 C19.3,17.6738954 19,17.2738954 18.6,17.2738954 Z" id="Path" fill="#000000"></path>
                <path d="M14.7,17.3737954 C14.3,17.3737954 13.9,17.6737954 13.9,18.1737954 L13.9,24.8737954 C13.9,25.2737954 14.2,25.6737954 14.7,25.6737954 C15.1,25.6737954 15.5,25.3737954 15.5,24.8737954 L15.5,18.1737954 C15.5,17.6737954 15.1,17.3737954 14.7,17.3737954 Z" id="Path" fill="#000000"></path>
                <path d="M29.5,12.6737954 C29.4,10.5737954 28.1,10.0737954 27.5,9.87379539 C26.5,9.67379539 25.5,9.87379539 24.8,10.4737954 C24.7,9.97379539 24.5,9.47379539 24.3,9.17379539 C24.1,8.77379539 23.2,8.07379539 22.5,7.87379539 C21.9,7.77379539 21.1,7.77379539 20.3,7.87379539 C19.8,7.97379539 19,8.37379539 18.6,8.97379539 C18.6,8.87379539 18.5,8.77379539 18.5,8.67379539 C18.1,8.07379539 17.3,7.47379539 16.5,7.37379539 C15.8,7.27379539 15.1,7.27379539 14.3,7.47379539 C13.9,7.57379539 13.5,7.87379539 13.2,8.17379539 C13.1,7.77379539 13.1,7.47379539 13,7.17379539 C12.7,5.37379539 12.4,4.17379539 11.9,3.17379539 L11.8,2.97383539 C11.5,2.17383539 10.9,0.773835392 9.7,0.173835392 C8.8,-0.226164608 7.1,0.0738353925 6.4,0.973835392 C5.7,1.67383539 5.5,3.07379539 5.7,5.07379539 C5.8,5.87379539 6.1,7.37379539 6.3,8.07379539 L6.5,8.97379539 C6.6,9.47379539 6.7,9.97379539 6.9,10.5737954 L7,10.9737954 C7.1,11.5737954 7.2,11.7737954 7.4,12.7737954 C7.5,13.2737954 7.6,13.7737954 7.7,14.3737954 C7.4,13.9737954 7.1,13.6737954 6.7,13.3737954 C5.8,12.5737954 4.8,11.8737954 3.6,11.7737954 C1.9,11.5737954 0.3,12.7737954 0,14.4737954 C0,15.2737954 0,15.7737954 0.5,16.7737954 C0.8,17.3737954 1.6,18.2737954 2.3,19.1737954 C2.8,19.7737954 3.2,20.2737954 3.4,20.6737954 C4,21.5737954 4.5,22.3737954 4.9,23.0737954 C5.3,23.6737954 5.6,24.2737954 5.9,24.5737954 L7.6,26.4737954 C7.9,26.6737954 8.2,27.0737954 8.6,27.3737954 C9.1,27.7737954 9.5,28.2737954 9.8,28.4737954 C10.1,28.6737954 10.1,29.6737954 10,30.4737954 C10,30.6737954 10,30.8737954 10.2,31.0737954 C10.3,31.2737954 10.5,31.3737954 10.8,31.3737954 C11.3,31.3737954 11.8,31.3737954 12.3,31.3737954 C13.1,31.3737954 13.9,31.3737954 14.7,31.3737954 C15.6,31.3737954 16.5,31.3737954 17.1,31.2737954 C18.1,31.1737954 19.2,29.5737954 19.7,28.7737954 C19.8,28.9737954 20.9,31.0737954 22.2,31.2737954 C23.1,31.4737954 24.7,31.2737954 24.8,31.1737954 C25,31.1737954 25.2,30.9737954 25.3,30.8737954 C25.4,30.7737954 25.5,30.4737954 25.4,30.2737954 C25.3,30.0737954 25.2,29.2737954 25.2,28.6737954 C25.2,28.4737954 25.2,28.2737954 25.2,28.1737954 C25.2,27.8737954 25.2,27.6737954 25.4,26.8737954 C25.5,26.2737954 26.7,24.5737954 27.6,23.5737954 C28.2,22.6737954 28.8,21.2737954 29,20.6737954 C29.3,19.6737954 29.5,17.6737954 29.5,17.0737954 C29.6,16.2737954 29.6,15.6737954 29.6,14.6737954 L29.6,14.3737954 C29.6,13.9737954 29.6,13.7737954 29.5,12.6737954 Z M28,14.7737954 C28,15.7737954 28,16.3737954 27.9,17.0737954 C27.8,18.1737954 27.7,19.6737954 27.5,20.3737954 C27.3,20.9737954 26.8,22.1737954 26.4,22.7737954 C26,23.1737954 24.2,25.4737954 23.9,26.6737954 C23.7,27.4737954 23.7,27.7737954 23.7,28.1737954 C23.7,28.2737954 23.7,28.4737954 23.7,28.6737954 C23.7,29.0737954 23.7,29.4737954 23.8,29.8737954 C23.3,29.8737954 22.8,29.8737954 22.4,29.8737954 C22.1,29.7737954 21.4,28.8737954 21,28.1737954 C20.7,27.6737954 20.2,27.3737954 19.7,27.3737954 C19.2,27.3737954 18.7,27.6737954 18.4,28.1737954 C17.8,29.1737954 17.1,29.9737954 16.9,29.9737954 C15.9,30.0737954 14.1,30.0737954 12.4,30.0737954 C12.2,30.0737954 12,30.0737954 11.7,30.0737954 C11.7,29.2737954 11.6,28.1737954 10.9,27.5737954 C10.6,27.2737954 10.1,26.8737954 9.7,26.4737954 C9.3,26.0737954 8.9,25.7737954 8.7,25.5737954 L7.1,23.7737954 C6.9,23.4737954 6.6,22.9737954 6.3,22.4737954 C5.8,21.6737954 5.3,20.7737954 4.6,19.8737954 C4.3,19.4737954 3.9,18.8737954 3.4,18.3737954 C2.8,17.4737954 2.1,16.5737954 1.8,16.0737954 C1.5,15.4737954 1.5,15.2737954 1.6,14.5737954 C1.7,13.6737954 2.7,13.0737954 3.6,13.1737954 C4.4,13.2737954 5.1,13.7737954 5.8,14.3737954 C6.1,14.6737954 6.6,15.1737954 6.9,15.5737954 L7.1,15.7737954 C7.3,15.9737954 7.4,16.0737954 7.5,16.2737954 C7.6,16.3737954 7.7,16.5737954 7.8,16.7737954 L8,17.0737954 C8.2,17.3737954 8.6,17.8737954 9.2,17.5737954 C9.8,17.2737954 9.6,16.6737954 9.6,16.3737954 L9.6,16.1737954 C9.4,15.1737954 9.2,13.5737954 8.9,12.1737954 C8.7,11.1737954 8.6,10.9737954 8.4,10.3737954 L8.3,9.97379539 C8.2,9.67379539 8.1,9.17379539 7.9,8.67379539 L7.7,7.77379539 C7.6,6.97379539 7.3,5.67379539 7.2,4.97379539 C7,3.47379539 7.2,2.37383539 7.5,1.87383539 C7.8,1.57383539 8.7,1.37383539 9.2,1.67383539 C9.9,1.97383539 10.4,3.17379539 10.6,3.67379539 L10.7,3.87379539 C11.1,4.77379539 11.4,5.87379539 11.7,7.57379539 C11.8,8.47379539 12,9.47379539 12.2,10.4737954 C12.4,11.4737954 12.6,12.6737954 12.6,12.9737954 C12.6,13.3737954 12.9,13.6737954 13.3,13.6737954 C13.7,13.6737954 14,13.3737954 14.1,12.9737954 C14.1,12.5737954 14.1,12.1737954 14.1,11.6737954 C14.1,11.0737954 14,10.4737954 14.1,10.0737954 C14.2,9.67379539 14.5,9.17379539 14.9,9.07379539 C15.4,8.87379539 15.9,8.87379539 16.3,8.97379539 C16.7,9.07379539 17.2,9.37379539 17.3,9.57379539 C17.6,10.0737954 17.8,11.1737954 17.9,12.6737954 C17.9,12.8737954 18,13.5737954 18.6,13.5737954 C19,13.5737954 19.3,13.3737954 19.4,12.9737954 C19.5,12.6737954 19.5,12.2737954 19.6,11.8737954 C19.6,11.2737954 19.7,10.3737954 19.9,10.0737954 C20,9.77379539 20.6,9.47379539 20.7,9.47379539 C21.3,9.37379539 21.9,9.37379539 22.3,9.47379539 C22.5,9.47379539 23,9.97379539 23.1,10.0737954 C23.3,10.4737954 23.6,11.6737954 23.7,12.9737954 C23.7,13.3737954 24,13.6737954 24.4,13.6737954 C25.1,13.6737954 25.2,13.0737954 25.3,12.8737954 C25.4,12.5737954 25.5,12.0737954 25.7,11.7737954 C26,11.3737954 26.7,11.1737954 27.2,11.2737954 C27.9,11.4737954 28,12.0737954 28,12.6737954 C28,13.7737954 28,13.8737954 28,14.3737954 L28,14.7737954 L28,14.7737954 Z" id="Shape" fill="#000000"></path>
            </g>
        </g>
    </g>
</svg>