
<svg width="37" height="36" viewBox="0 0 37 36" fill="none" xmlns="http://www.w3.org/2000/svg">
<path d="M28.6438 9C29.7771 10.2 30.6438 11.5667 31.2438 13.1C31.8771 14.6333 32.1938 16.2667 32.1938 18C32.1938 20.4 31.5938 22.6167 30.3938 24.65C29.2271 26.65 27.6271 28.25 25.5938 29.45C23.5938 30.6167 21.3938 31.2 18.9938 31.2C16.5604 31.2 14.3271 30.6167 12.2938 29.45C10.2938 28.25 8.71042 26.65 7.54375 24.65C6.37708 22.6167 5.79375 20.4 5.79375 18C5.79375 15.6 6.37708 13.4 7.54375 11.4C8.71042 9.36666 10.2938 7.76667 12.2938 6.6C14.3271 5.4 16.5604 4.8 18.9938 4.8V-2.86102e-06C15.7271 -2.86102e-06 12.7104 0.816664 9.94375 2.45C7.21042 4.05 5.02708 6.23333 3.39375 9C1.79375 11.7333 0.99375 14.7333 0.99375 18C0.99375 21.2667 1.79375 24.2833 3.39375 27.05C5.02708 29.7833 7.21042 31.9667 9.94375 33.6C12.7104 35.2 15.7271 36 18.9938 36C22.2271 36 25.2104 35.2 27.9438 33.6C30.7104 31.9667 32.9104 29.7833 34.5438 27.05C36.1771 24.2833 36.9938 21.2667 36.9938 18C36.9938 15.6667 36.5604 13.45 35.6938 11.35C34.8604 9.25 33.6771 7.38333 32.1438 5.75L28.6438 9Z" fill="#8C8C8C"/>
</svg>
