
<svg width="54" height="54" viewBox="0 0 54 54" fill="none" xmlns="http://www.w3.org/2000/svg">
<circle cx="27" cy="27" r="27" fill="black" fill-opacity="0.5"/>
<path fill-rule="evenodd" clip-rule="evenodd" d="M37.5993 14H16.7996V34.7997H37.5993V14ZM33.0496 21.1497H21.3498L19.3998 26.9996H34.9996L33.0496 21.1497ZM21.9996 32.8492C23.0766 32.8492 23.9496 31.9761 23.9496 30.8992C23.9496 29.8223 23.0766 28.9492 21.9996 28.9492C20.9227 28.9492 20.0497 29.8223 20.0497 30.8992C20.0497 31.9761 20.9227 32.8492 21.9996 32.8492ZM34.3495 30.8992C34.3495 31.9761 33.4765 32.8492 32.3995 32.8492C31.3226 32.8492 30.4496 31.9761 30.4496 30.8992C30.4496 29.8223 31.3226 28.9492 32.3995 28.9492C33.4765 28.9492 34.3495 29.8223 34.3495 30.8992ZM21.9998 34.8003H16.7998V40.0002H21.9998V34.8003ZM37.5993 34.8003H32.3993V40.0002H37.5993V34.8003Z" fill="#E8E8E8"/>
</svg>
