
<svg width="101" height="102" viewBox="0 0 101 102" fill="none" xmlns="http://www.w3.org/2000/svg">
<path opacity="0.94" d="M91.6685 102L69.8492 79.9647C62.2559 85.7853 53.6105 88.6957 43.913 88.6957C35.9538 88.6957 28.5892 86.7092 21.8193 82.7364C15.1409 78.7636 9.83469 73.4049 5.90082 66.6603C1.96694 59.8234 0 52.3859 0 44.3478C0 36.3098 1.96694 28.9185 5.90082 22.1739C9.83469 15.337 15.1409 9.93207 21.8193 5.95924C28.5892 1.98641 35.9538 0 43.913 0C51.7808 0 59.0539 1.98641 65.7323 5.95924C72.5023 9.93207 77.8542 15.337 81.788 22.1739C85.8134 28.9185 87.8261 36.3098 87.8261 44.3478C87.8261 54.1413 84.9443 62.8723 79.1807 70.5408L101 92.5761L91.6685 102ZM13.1739 44.3478C13.1739 49.9837 14.5462 55.2038 17.2908 60.0082C20.0353 64.7201 23.7405 68.462 28.4062 71.2337C33.1635 74.0054 38.3324 75.3913 43.913 75.3913C49.4937 75.3913 54.6168 74.0054 59.2826 71.2337C63.9484 68.462 67.6535 64.7201 70.3981 60.0082C73.2341 55.2038 74.6522 49.9837 74.6522 44.3478C74.6522 38.712 73.2341 33.538 70.3981 28.8261C67.6535 24.0217 63.9484 20.2337 59.2826 17.462C54.6168 14.6902 49.4937 13.3044 43.913 13.3044C38.3324 13.3044 33.1635 14.6902 28.4062 17.462C23.7405 20.2337 20.0353 24.0217 17.2908 28.8261C14.5462 33.538 13.1739 38.712 13.1739 44.3478Z" fill="#150E0B"/>
</svg>
