
<svg width="29" height="29" viewBox="0 0 29 29" fill="none" xmlns="http://www.w3.org/2000/svg">
<path d="M25.9203 28.5004L19.9578 22.5379C17.8828 24.1129 15.5203 24.9004 12.8703 24.9004C10.6953 24.9004 8.6828 24.3629 6.8328 23.2879C5.0078 22.2129 3.5578 20.7629 2.4828 18.9379C1.4078 17.0879 0.8703 15.0754 0.8703 12.9004C0.8703 10.7254 1.4078 8.72539 2.4828 6.90039C3.5578 5.05039 5.0078 3.58789 6.8328 2.51289C8.6828 1.43789 10.6953 0.900391 12.8703 0.900391C15.0203 0.900391 17.0078 1.43789 18.8328 2.51289C20.6828 3.58789 22.1453 5.05039 23.2203 6.90039C24.3203 8.72539 24.8703 10.7254 24.8703 12.9004C24.8703 15.5504 24.0828 17.9129 22.5078 19.9879L28.4703 25.9504L25.9203 28.5004ZM4.4703 12.9004C4.4703 14.4254 4.8453 15.8379 5.5953 17.1379C6.3453 18.4129 7.3578 19.4254 8.6328 20.1754C9.9328 20.9254 11.3453 21.3004 12.8703 21.3004C14.3953 21.3004 15.7953 20.9254 17.0703 20.1754C18.3453 19.4254 19.3578 18.4129 20.1078 17.1379C20.8828 15.8379 21.2703 14.4254 21.2703 12.9004C21.2703 11.3754 20.8828 9.97539 20.1078 8.70039C19.3578 7.40039 18.3453 6.37539 17.0703 5.62539C15.7953 4.87539 14.3953 4.50039 12.8703 4.50039C11.3453 4.50039 9.9328 4.87539 8.6328 5.62539C7.3578 6.37539 6.3453 7.40039 5.5953 8.70039C4.8453 9.97539 4.4703 11.3754 4.4703 12.9004Z" fill="#150E0B" fill-opacity="0.3"/>
</svg>
