
<svg id="Layer_1" data-name="Layer 1" xmlns="http://www.w3.org/2000/svg" viewBox="0 0 141.95 27"><defs><style>.cls-1{fill:#ffb200;}</style></defs><polygon class="cls-1" points="14.2 0 17.55 10.31 28.39 10.31 19.62 16.69 22.97 27 14.2 20.63 5.42 27 8.77 16.69 0 10.31 10.84 10.31 14.2 0"/><polygon class="cls-1" points="42.58 0 45.94 10.31 56.78 10.31 48.01 16.69 51.36 27 42.58 20.63 33.81 27 37.16 16.69 28.39 10.31 39.23 10.31 42.58 0"/><polygon class="cls-1" points="70.97 0 74.33 10.31 85.17 10.31 76.4 16.69 79.75 27 70.97 20.63 62.2 27 65.55 16.69 56.78 10.31 67.62 10.31 70.97 0"/><polygon class="cls-1" points="99.36 0 102.71 10.31 113.56 10.31 104.78 16.69 108.14 27 99.36 20.63 90.59 27 93.94 16.69 85.17 10.31 96.01 10.31 99.36 0"/><polygon class="cls-1" points="127.75 0 131.1 10.31 141.95 10.31 133.18 16.69 136.53 27 127.75 20.63 118.98 27 122.33 16.69 113.56 10.31 124.4 10.31 127.75 0"/></svg>