
<svg width="349" height="349" viewBox="0 0 349 349" fill="none" xmlns="http://www.w3.org/2000/svg">
<mask id="mask0" mask-type="alpha" maskUnits="userSpaceOnUse" x="0" y="0" width="349" height="349">
<path d="M174.5 0C270.874 0 349 78.1263 349 174.5C349 270.874 270.874 349 174.5 349C78.1263 349 0 270.874 0 174.5C0 78.1263 78.1263 0 174.5 0ZM174.5 3.32381C79.962 3.32381 3.32381 79.962 3.32381 174.5C3.32381 269.038 79.962 345.676 174.5 345.676C269.038 345.676 345.676 269.038 345.676 174.5C345.676 79.962 269.038 3.32381 174.5 3.32381ZM265.158 91.246L288.692 114.83L144.488 257.347L60.1565 171.837L83.9935 148.555L144.792 210.203L265.158 91.246Z" fill="white"/>
</mask>
<g mask="url(#mask0)">
<rect x="60" y="91" width="229" height="167" fill="white"/>
</g>
</svg>
